<?xml version="1.0" encoding="UTF-8"?>
<svg width="223.72mm" height="112.87mm" version="1.1" viewBox="0 0 223.72 112.87" xmlns="http://www.w3.org/2000/svg">
 <g transform="translate(-.40525 -.79239)">
  <g stroke="#000">
   <rect x="5.9052" y="6.2934" width="139.69" height="101.55" ry="2.5005" fill="#fff"/>
   <rect x="149.29" y="6.2924" width="69.338" height="101.87" ry="2.5084" fill="#fff"/>
   <rect x="8.2947" y="29.85" width="52.917" height="41.01" ry="3.2931" fill="none" stroke-width=".265"/>
  </g>
  <g fill="none" stroke="#000" stroke-width=".6">
   <g transform="translate(5.2917 -2.6458)">
    <g>
     <path d="m54.597 102.61 5.2917-13.229 5.2917 13.229"/>
     <path d="m59.888 89.381v-14.552"/>
     <path d="m59.888 74.829-7.9375 2.6458-5.2917-7.9375"/>
     <path d="m59.888 74.829 5.2917 10.583"/>
    </g>
    <ellipse cx="61.623" cy="70.475" rx="3.9858" ry="4.8937"/>
   </g>
   <g transform="translate(123.03 -5.2917)">
    <g>
     <path d="m54.597 102.61 5.2917-13.229 5.2917 13.229"/>
     <path d="m59.888 89.381v-14.552"/>
     <path d="m59.888 74.829-7.9375 7.9375-6.6146-6.6146"/>
     <path d="m66.503 82.766 6.6146-6.6146"/>
     <path d="m59.888 74.829 6.6146 7.9375"/>
    </g>
    <ellipse cx="61.623" cy="70.475" rx="3.9858" ry="4.8937"/>
   </g>
   <g transform="translate(72.278 -5.4496)">
    <g>
     <path d="m20.683 105.41 5.2917-13.229 5.2917 13.229"/>
     <path d="m25.975 92.185v-14.552"/>
     <path d="m25.975 77.633-3.1753 5.1472-2.1462 5.2401"/>
     <path d="m25.975 77.633 5.2917 10.583"/>
    </g>
    <g transform="translate(-106.12 5.2363)">
     <path d="m131.91 62.733c-1.2723 0.24236-2.137 1.2934-3.2206 1.9087-1.1149 1.1222-1.1302 2.8051-1.1948 4.2838-0.0147 1.0544-0.35652 2.2667-1.3867 2.7553-0.57477 0.234-1.2102 0.30951-1.7672 0.59822"/>
     <path d="m131.64 62.66c1.2723 0.24236 2.137 1.2934 3.2206 1.9087 1.1149 1.1222 1.1302 2.8051 1.1948 4.2838 0.0147 1.0544 0.35652 2.2667 1.3867 2.7553 0.57477 0.234 1.2102 0.30951 1.7672 0.59822"/>
    </g>
    <ellipse cx="25.756" cy="73.016" rx="3.9858" ry="4.7471"/>
   </g>
  </g>
  <path d="m53.274 70.86-7.9375-19.844" fill="none" stroke="#000" stroke-width=".26458px"/>
  <circle cx="45.336" cy="51.016" r="1.3229" stroke="#000" stroke-width=".265"/>
  <g id="graphique" stroke="#000">
   <g transform="matrix(1.0857 0 0 1 -3.2056 -5.2917)" fill="none" stroke-width=".26458px">
    <path d="m37.399 53.662h18.521l-1.3229-1.3229"/>
    <path d="m55.92 53.662-1.3229 1.3229"/>
   </g>
   <g fill="#9b0000">
    <rect x="37.928" y="43.872" width="1.5875" height="3.9688" rx="0" ry="0" stroke-width=".1"/>
    <rect x="40.574" y="42.814" width="1.5875" height="5.0271" rx="0" ry="0" stroke-width=".11255"/>
    <rect x="43.22" y="41.756" width="1.5875" height="6.0854" rx="0" ry="0" stroke-width=".12383"/>
    <rect x="45.866" y="40.433" width="1.5875" height="7.4083" rx="0" ry="0" stroke-width=".13663"/>
    <rect x="48.511" y="36.464" width="1.5875" height="11.377" rx="0" ry="0" stroke-width=".16931"/>
    <rect x="51.157" y="32.76" width="1.5875" height="15.081" rx="0" ry="0" stroke-width=".19494"/>
    <rect x="53.803" y="26.675" width="1.5875" height="21.167" rx="0" ry="0" stroke-width=".23094"/>
   </g>
  </g>
  <g>
   <text x="32.296864" y="34.86179" fill="#000000" font-family="Lato" font-size="2.8222px" letter-spacing="0px" stroke-width=".26458" word-spacing="0px" style="line-height:1.25" xml:space="preserve"><tspan x="32.296864" y="34.86179" font-family="Lato" font-size="2.8222px" stroke-width=".26458">roof-breaking !</tspan></text>
   <circle cx="20.201" cy="51.016" r="6.6146" fill="#eaffff" stroke="#000" stroke-opacity=".53696" stroke-width=".6"/>
   <text x="12.231325" y="60.980061" fill="#000000" font-family="sans-serif" font-size="2.1167px" letter-spacing="0px" stroke-width=".26458" word-spacing="0px" style="line-height:1.25" xml:space="preserve"><tspan x="12.231325" y="60.980061" font-size="2.1167px" stroke-width=".26458">cool pie-chart</tspan></text>
   <text x="102.34535" y="46.500946" fill="#000000" font-family="Inter" font-size="3.175px" letter-spacing="0px" stroke-width=".26458" word-spacing="0px" style="line-height:1.25" xml:space="preserve"><tspan x="102.34535" y="46.500946">But we have thousands</tspan><tspan x="102.34535" y="50.469696">of data points!</tspan></text>
  </g>
  <g fill="none" stroke="#000">
   <path d="m102.23 60.746c2.9891-1.2502 5.2947-3.0037 7.0027-5.8536 0.37958-0.80566 0.47284-1.7024 0.70396-2.5536" stroke-width=".14012px"/>
   <path d="m178.95 62.922c-5.0068-2.0942-8.8687-5.0313-11.73-9.8049-0.6358-1.3495-0.79201-2.8516-1.1792-4.2774" stroke-width=".2347px"/>
   <path d="m70.472 62.922c9.171-3.4018 14.552-14.552 15.875-19.844" stroke-width=".25254px"/>
   <path d="m83.701 35.141c3.9688-2.6458-1.3229-2.6458 1.3229-7.9375" stroke-width=".22448px"/>
  </g>
  <g fill="#000000" letter-spacing="0px" stroke-width=".26458" word-spacing="0px">
   <text x="154.4543" y="45.748856" font-family="Loma" font-size="3.8806px" style="line-height:1.25" xml:space="preserve"><tspan x="154.4543" y="45.748856" font-family="Loma" font-size="3.8806px" stroke-width=".26458">Well, I dunno ...</tspan></text>
   <text x="64.766273" y="37.281605" font-family="sans-serif" font-size="2.8222px" style="line-height:1.25" xml:space="preserve"><tspan x="64.766273" y="37.281605">The final release will only</tspan><tspan x="64.766273" y="40.80938">support 10 data points</tspan></text>
   <text x="65.93988" y="22.432087" font-family="sans-serif" font-size="2.8222px" style="line-height:1.25" xml:space="preserve"><tspan x="65.93988" y="22.432087">I'm glad you'll use our</tspan><tspan x="65.93988" y="25.959862">exciting new startup app</tspan></text>
  </g>
 </g>
</svg>
